<svg xmlns="http://www.w3.org/2000/svg" width="200.646" height="67.07" viewBox="0 0 200.646 67.07"><g transform="translate(0 0)"><g transform="translate(0 0)"><path d="M184.668,0H15.987c-.615,0-1.222,0-1.836,0-.513,0-1.023.013-1.541.021a22.158,22.158,0,0,0-3.36.3A11.176,11.176,0,0,0,6.063,1.372,10.794,10.794,0,0,0,3.349,3.349,10.494,10.494,0,0,0,1.374,6.067,11.068,11.068,0,0,0,.326,9.258a21.786,21.786,0,0,0-.3,3.357C.01,13.129.008,13.645,0,14.159V52.916c.008.521.01,1.025.025,1.546a21.784,21.784,0,0,0,.3,3.357,11.046,11.046,0,0,0,1.048,3.193,10.409,10.409,0,0,0,1.976,2.707,10.52,10.52,0,0,0,2.714,1.976,11.236,11.236,0,0,0,3.187,1.058,22.558,22.558,0,0,0,3.36.3c.518.011,1.028.018,1.541.018.613,0,1.221,0,1.836,0h168.68c.6,0,1.215,0,1.818,0,.511,0,1.035-.007,1.546-.018a22.265,22.265,0,0,0,3.353-.3,11.408,11.408,0,0,0,3.2-1.058,10.526,10.526,0,0,0,2.712-1.976,10.723,10.723,0,0,0,1.981-2.707,11.073,11.073,0,0,0,1.038-3.193,22.643,22.643,0,0,0,.311-3.357c.007-.521.007-1.025.007-1.546.013-.609.013-1.215.013-1.834V15.99c0-.614,0-1.223-.013-1.831,0-.514,0-1.03-.007-1.544a22.641,22.641,0,0,0-.311-3.357,11.1,11.1,0,0,0-1.038-3.191,10.842,10.842,0,0,0-4.693-4.695,11.347,11.347,0,0,0-3.2-1.051,21.871,21.871,0,0,0-3.353-.3C187.52.016,187,.006,186.485,0c-.6,0-1.215,0-1.818,0Z" transform="translate(0 0)" fill="#a6a6a6"/><path d="M13.569,65.01c-.511,0-1.009-.007-1.516-.018a21.275,21.275,0,0,1-3.134-.273A9.866,9.866,0,0,1,6.141,63.8,9.064,9.064,0,0,1,3.8,62.1a8.921,8.921,0,0,1-1.711-2.342,9.594,9.594,0,0,1-.91-2.779A20.814,20.814,0,0,1,.9,53.831C.887,53.478.873,52.3.873,52.3V13.567s.015-1.159.025-1.5a20.742,20.742,0,0,1,.278-3.139,9.65,9.65,0,0,1,.911-2.787A9.01,9.01,0,0,1,3.789,3.8,9.332,9.332,0,0,1,6.14,2.083a9.764,9.764,0,0,1,2.772-.912A21.1,21.1,0,0,1,12.057.9L13.57.875H185.886L187.417.9a20.766,20.766,0,0,1,3.116.273,9.957,9.957,0,0,1,2.8.919,9.379,9.379,0,0,1,4.049,4.058,9.663,9.663,0,0,1,.9,2.765,21.789,21.789,0,0,1,.291,3.164c0,.475,0,.985,0,1.493.013.629.013,1.227.013,1.831V50.489c0,.609,0,1.2-.013,1.8,0,.545,0,1.045-.007,1.559a21.348,21.348,0,0,1-.287,3.108,9.623,9.623,0,0,1-.905,2.8,9.188,9.188,0,0,1-1.7,2.323A9.076,9.076,0,0,1,193.33,63.8a9.829,9.829,0,0,1-2.8.922,21.033,21.033,0,0,1-3.134.273c-.491.011-1.005.018-1.5.018l-1.818,0Z" transform="translate(0.591 0.592)"/><g transform="translate(16.72 14.622)"><path d="M34.783,24.583a8.3,8.3,0,0,1,3.951-6.962A8.494,8.494,0,0,0,32.042,14c-2.816-.3-5.545,1.685-6.98,1.685-1.463,0-3.672-1.655-6.051-1.607a8.912,8.912,0,0,0-7.5,4.574c-3.243,5.614-.824,13.866,2.282,18.4,1.554,2.222,3.371,4.7,5.747,4.617,2.326-.1,3.194-1.483,6-1.483,2.781,0,3.6,1.483,6.021,1.427,2.5-.041,4.068-2.232,5.568-4.475a18.38,18.38,0,0,0,2.546-5.185,8.018,8.018,0,0,1-4.895-7.376Z" transform="translate(-9.972 -5.166)" fill="#fff"/><path d="M24.234,14.573A8.17,8.17,0,0,0,26.1,8.72,8.312,8.312,0,0,0,20.725,11.5a7.774,7.774,0,0,0-1.918,5.636,6.873,6.873,0,0,0,5.427-2.566Z" transform="translate(-4.003 -8.72)" fill="#fff"/><g transform="translate(41.006 15.343)"><path d="M47.632,33.272H39.695L37.789,38.9H34.427l7.517-20.822h3.493L52.955,38.9H49.536Zm-7.115-2.6h6.291l-3.1-9.134H43.62Z" transform="translate(-34.427 -17.731)" fill="#fff"/><path d="M60.931,29.1c0,4.717-2.525,7.748-6.335,7.748a5.146,5.146,0,0,1-4.776-2.656h-.072V41.71H46.631v-20.2h3.016v2.525H49.7a5.385,5.385,0,0,1,4.834-2.684C58.391,21.349,60.931,24.394,60.931,29.1Zm-3.2,0c0-3.073-1.588-5.094-4.012-5.094-2.381,0-3.982,2.063-3.982,5.094,0,3.059,1.6,5.107,3.982,5.107,2.423,0,4.012-2.006,4.012-5.107Z" transform="translate(-26.168 -15.519)" fill="#fff"/><path d="M70.9,29.1c0,4.717-2.525,7.748-6.335,7.748a5.146,5.146,0,0,1-4.776-2.656h-.072V41.71H56.6v-20.2h3.016v2.525h.057A5.385,5.385,0,0,1,64.5,21.349C68.356,21.349,70.9,24.394,70.9,29.1Zm-3.2,0C67.693,26.025,66.1,24,63.681,24,61.3,24,59.7,26.068,59.7,29.1c0,3.059,1.6,5.107,3.982,5.107,2.423,0,4.012-2.006,4.012-5.107Z" transform="translate(-19.425 -15.519)" fill="#fff"/><path d="M73,33.238c.231,2.065,2.237,3.421,4.978,3.421,2.626,0,4.516-1.356,4.516-3.218,0-1.616-1.14-2.584-3.838-3.247l-2.7-.65c-3.823-.924-5.6-2.712-5.6-5.613,0-3.593,3.131-6.06,7.576-6.06,4.4,0,7.416,2.468,7.517,6.06H82.305C82.117,21.853,80.4,20.6,77.889,20.6s-4.228,1.269-4.228,3.116c0,1.472,1.1,2.338,3.781,3l2.294.563c4.272,1.01,6.047,2.726,6.047,5.772,0,3.9-3.1,6.335-8.038,6.335-4.618,0-7.735-2.382-7.937-6.149Z" transform="translate(-10.484 -17.871)" fill="#fff"/><path d="M85.5,19.3v3.593h2.887V25.36H85.5v8.369c0,1.3.578,1.906,1.847,1.906a9.737,9.737,0,0,0,1.025-.072v2.453a8.557,8.557,0,0,1-1.731.144c-3.073,0-4.272-1.154-4.272-4.1v-8.7H80.163V22.892H82.37V19.3Z" transform="translate(-3.476 -16.904)" fill="#fff"/><path d="M86.065,29.109c0-4.776,2.813-7.778,7.2-7.778s7.2,3,7.2,7.778-2.785,7.778-7.2,7.778S86.065,33.9,86.065,29.109Zm11.226,0c0-3.277-1.5-5.21-4.026-5.21s-4.025,1.949-4.025,5.21c0,3.29,1.5,5.209,4.025,5.209s4.026-1.919,4.026-5.209Z" transform="translate(0.518 -15.529)" fill="#fff"/><path d="M96.186,21.508h2.972v2.584h.072a3.621,3.621,0,0,1,3.651-2.743,4.806,4.806,0,0,1,1.068.116V24.38a4.356,4.356,0,0,0-1.4-.188A3.14,3.14,0,0,0,99.3,27.684v9H96.186Z" transform="translate(7.367 -15.519)" fill="#fff"/><path d="M114.911,32.24c-.419,2.756-3.1,4.647-6.537,4.647-4.416,0-7.157-2.959-7.157-7.706s2.756-7.85,7.026-7.85c4.2,0,6.841,2.885,6.841,7.488v1.068H104.363v.188a3.954,3.954,0,0,0,4.084,4.3,3.434,3.434,0,0,0,3.506-2.135Zm-10.534-4.531h7.59a3.651,3.651,0,0,0-3.724-3.853,3.843,3.843,0,0,0-3.866,3.853Z" transform="translate(10.772 -15.529)" fill="#fff"/></g></g></g><g transform="translate(59.27 14.37)"><path d="M37.679,13.069h1.338A1.68,1.68,0,0,0,40.9,11.474c0-.923-.694-1.519-1.872-1.519a1.783,1.783,0,0,0-2.019,1.567H35.543A3.136,3.136,0,0,1,39.079,8.6c1.97,0,3.357,1.1,3.357,2.69a2.324,2.324,0,0,1-1.818,2.288v.118a2.33,2.33,0,0,1,2.225,2.419,3.342,3.342,0,0,1-3.737,2.974,3.326,3.326,0,0,1-3.758-2.96H36.84c.09.957.969,1.574,2.266,1.574s2.143-.693,2.143-1.671-.8-1.6-2.191-1.6h-1.38Z" transform="translate(-35.349 -8.57)" fill="#fff"/><path d="M40.829,15.669c0-1.359,1.014-2.143,2.808-2.254l2.045-.118v-.652c0-.8-.526-1.248-1.546-1.248-.832,0-1.407.305-1.574.839H41.121c.152-1.3,1.374-2.129,3.087-2.129,1.893,0,2.96.942,2.96,2.537V17.8H45.732V16.743h-.118a2.54,2.54,0,0,1-2.268,1.185,2.281,2.281,0,0,1-2.517-2.26Zm4.853-.645v-.631l-1.844.118c-1.04.07-1.511.423-1.511,1.089s.589,1.075,1.4,1.075a1.78,1.78,0,0,0,1.955-1.651Z" transform="translate(-31.64 -7.53)" fill="#fff"/><path d="M47.569,11.449v6.3h-1.49v-7.55H51.05v1.254Z" transform="translate(-28.087 -7.471)" fill="#fff"/><path d="M57.275,14.017c0,2.4-1.213,3.9-3.119,3.9a2.461,2.461,0,0,1-2.324-1.268h-.118v3.654h-1.49V10.246h1.434v1.248h.111a2.623,2.623,0,0,1,2.371-1.373C56.062,10.12,57.275,11.618,57.275,14.017Zm-1.533,0c0-1.595-.755-2.558-2.017-2.558s-2.039.984-2.039,2.565.784,2.558,2.032,2.558c1.269,0,2.024-.964,2.024-2.565Z" transform="translate(-25.282 -7.522)" fill="#fff"/><path d="M55.924,20.449V19.166a3.521,3.521,0,0,0,.486.028,1.292,1.292,0,0,0,1.366-1.054l.111-.368-2.733-7.578h1.623l1.893,6h.118l1.886-6h1.58L59.44,18.057c-.645,1.837-1.359,2.427-2.9,2.427C56.417,20.484,56.063,20.47,55.924,20.449Z" transform="translate(-21.945 -7.471)" fill="#fff"/><path d="M60.081,15.671h1.484c.146.666.77,1.013,1.642,1.013.992,0,1.6-.437,1.6-1.117,0-.728-.547-1.075-1.6-1.075h-1.13V13.335h1.11c.9,0,1.359-.346,1.359-.978,0-.554-.444-.978-1.359-.978-.833,0-1.443.354-1.539.95H60.212a2.646,2.646,0,0,1,2.975-2.211c1.795,0,2.821.811,2.821,2.087a1.551,1.551,0,0,1-1.192,1.546v.118a1.694,1.694,0,0,1,1.477,1.7c0,1.435-1.222,2.385-3.087,2.385C61.558,17.952,60.219,17.2,60.081,15.671Z" transform="translate(-18.611 -7.54)" fill="#fff"/><path d="M65.066,17.745v-7.55h1.477v5.193h.118l3.48-5.193h1.477v7.55H70.14V12.524h-.111l-3.486,5.221Z" transform="translate(-15.238 -7.471)" fill="#fff"/><path d="M76.347,11.449H73.969v6.3H72.478v-6.3H70.1V10.195h6.247Z" transform="translate(-11.831 -7.471)" fill="#fff"/><path d="M81.355,15.765a3.068,3.068,0,0,1-3.273,2.184,3.429,3.429,0,0,1-3.488-3.9,3.482,3.482,0,0,1,3.481-3.945c2.1,0,3.37,1.435,3.37,3.806v.52H76.113v.084a1.994,1.994,0,0,0,2.011,2.163,1.809,1.809,0,0,0,1.795-.915Zm-5.241-2.433h3.812a1.821,1.821,0,0,0-1.857-1.956,1.929,1.929,0,0,0-1.955,1.956Z" transform="translate(-8.812 -7.53)" fill="#fff"/><path d="M82.38,10.195h3.4c1.477,0,2.343.748,2.343,1.92a1.622,1.622,0,0,1-1.276,1.595v.118a1.723,1.723,0,0,1,1.615,1.741c0,1.317-.991,2.177-2.648,2.177H82.38Zm1.477,1.144v1.955h1.477c.9,0,1.331-.346,1.331-.985,0-.589-.375-.97-1.166-.97Zm0,3.051V16.6h1.767c.881,0,1.353-.389,1.353-1.1,0-.756-.534-1.109-1.539-1.109Z" transform="translate(-3.52 -7.471)" fill="#fff"/></g></g></svg>