<svg xmlns="http://www.w3.org/2000/svg" width="13.213" height="25.744" viewBox="0 0 13.213 25.744"><g transform="translate(0 25.744) rotate(-90)"><g transform="translate(0)"><path d="M25.333,1.1,24.489.366a1.567,1.567,0,0,0-1.992,0l-9.62,8.359L3.247.357a1.511,1.511,0,0,0-1-.357,1.513,1.513,0,0,0-1,.357L.412,1.09a1.115,1.115,0,0,0,0,1.73l11.466,10a1.543,1.543,0,0,0,1,.392h0a1.543,1.543,0,0,0,1-.392L25.333,2.848a1.158,1.158,0,0,0,.411-.874A1.148,1.148,0,0,0,25.333,1.1Z" fill="#fff"/></g></g></svg>