<svg xmlns="http://www.w3.org/2000/svg" width="31" height="31" viewBox="0 0 31 31">
  <g id="instagram" transform="translate(0)" style="mix-blend-mode: luminosity;isolation: isolate">
    <path id="Контур_21496" data-name="Контур 21496" d="M30.907,9.109a11.38,11.38,0,0,0-.721-3.762A7.6,7.6,0,0,0,28.4,2.6,7.6,7.6,0,0,0,25.653.813a11.377,11.377,0,0,0-3.762-.72C20.238.018,19.709,0,15.5,0S10.762.018,9.109.093A11.381,11.381,0,0,0,5.347.814,7.6,7.6,0,0,0,2.6,2.6,7.6,7.6,0,0,0,.813,5.347a11.379,11.379,0,0,0-.72,3.762C.018,10.762,0,11.29,0,15.5s.018,4.738.094,6.391a11.377,11.377,0,0,0,.72,3.762A7.6,7.6,0,0,0,2.6,28.4a7.6,7.6,0,0,0,2.745,1.788,11.373,11.373,0,0,0,3.762.721c1.653.075,2.181.093,6.391.093s4.738-.018,6.391-.093a11.375,11.375,0,0,0,3.762-.721,7.924,7.924,0,0,0,4.533-4.533,11.376,11.376,0,0,0,.721-3.762c.075-1.653.093-2.181.093-6.391s-.018-4.738-.093-6.391Zm-2.79,12.654a8.576,8.576,0,0,1-.534,2.878,5.133,5.133,0,0,1-2.942,2.942,8.576,8.576,0,0,1-2.878.534c-1.634.075-2.124.09-6.263.09s-4.629-.016-6.264-.09a8.579,8.579,0,0,1-2.878-.534,4.8,4.8,0,0,1-1.782-1.16,4.8,4.8,0,0,1-1.16-1.782,8.576,8.576,0,0,1-.534-2.878c-.075-1.634-.09-2.125-.09-6.263s.016-4.629.09-6.264a8.582,8.582,0,0,1,.534-2.878,4.805,4.805,0,0,1,1.16-1.782A4.8,4.8,0,0,1,6.358,3.417a8.574,8.574,0,0,1,2.878-.534c1.634-.075,2.125-.09,6.263-.09h0c4.139,0,4.629.016,6.264.091a8.577,8.577,0,0,1,2.878.534,4.806,4.806,0,0,1,1.782,1.159,4.8,4.8,0,0,1,1.159,1.782,8.568,8.568,0,0,1,.534,2.878c.075,1.634.09,2.125.09,6.263s-.016,4.629-.09,6.264Zm0,0" transform="translate(0 0)" fill="#24272d"/>
    <path id="Контур_21497" data-name="Контур 21497" d="M132.5,124.539a7.959,7.959,0,1,0,7.96,7.96A7.96,7.96,0,0,0,132.5,124.539Zm0,13.126a5.167,5.167,0,1,1,5.167-5.167A5.167,5.167,0,0,1,132.5,137.665Zm0,0" transform="translate(-116.999 -116.999)" fill="#24272d"/>
    <path id="Контур_21498" data-name="Контур 21498" d="M365.65,90.485a1.86,1.86,0,1,1-1.86-1.86A1.86,1.86,0,0,1,365.65,90.485Zm0,0" transform="translate(-340.016 -83.259)" fill="#24272d"/>
  </g>
</svg>
