<svg xmlns="http://www.w3.org/2000/svg" xmlns:xlink="http://www.w3.org/1999/xlink" width="772" height="675" viewBox="0 0 772 675"><defs><filter id="a" x="189" y="0" width="581" height="675" filterUnits="userSpaceOnUse"><feOffset dy="3" input="SourceAlpha"/><feGaussianBlur stdDeviation="3" result="b"/><feFlood flood-opacity="0.161"/><feComposite operator="in" in2="b"/><feComposite in="SourceGraphic"/></filter><filter id="c" x="522.105" y="260.471" width="107.588" height="103.649" filterUnits="userSpaceOnUse"><feOffset dx="-1" input="SourceAlpha"/><feGaussianBlur stdDeviation="3" result="d"/><feFlood flood-opacity="0.161"/><feComposite operator="in" in2="d"/><feComposite in="SourceGraphic"/></filter><filter id="e" x="527.792" y="172.716" width="108.536" height="89.611" filterUnits="userSpaceOnUse"><feOffset dx="1" dy="2" input="SourceAlpha"/><feGaussianBlur stdDeviation="1" result="f"/><feFlood flood-opacity="0.161"/><feComposite operator="in" in2="f"/><feComposite in="SourceGraphic"/></filter><filter id="g" x="539.557" y="149.823" width="40.417" height="39.467" filterUnits="userSpaceOnUse"><feOffset dx="2" dy="3" input="SourceAlpha"/><feGaussianBlur stdDeviation="0.5" result="h"/><feFlood flood-opacity="0.161"/><feComposite operator="in" in2="h"/><feComposite in="SourceGraphic"/></filter></defs><g transform="translate(0.117 5.852)"><g transform="translate(0 0)"><g transform="translate(0 109.798)"><path d="M38,0H400a38,38,0,0,1,38,38V547a0,0,0,0,1,0,0H0a0,0,0,0,1,0,0V38A38,38,0,0,1,38,0Z" transform="translate(7.883 0.35)" fill="#ced1e0"/><rect width="280" height="270" rx="37" transform="translate(27.883 26.35)" fill="#bdbfd1"/><rect width="242" height="233" rx="30" transform="translate(47.883 44.35)" fill="#ced1e0"/><g transform="translate(54.079 50.802)"><ellipse cx="49" cy="50" rx="49" ry="50" transform="translate(106.803 57.548)" fill="#fff"/><ellipse cx="38.5" cy="39.5" rx="38.5" ry="39.5" transform="translate(119.803 68.548)" fill="#161621"/><ellipse cx="26" cy="27" rx="26" ry="27" transform="translate(129.803 80.548)" fill="#1e1e2e"/><ellipse cx="22" cy="21.5" rx="22" ry="21.5" transform="translate(134.803 4.548)" fill="#fff" opacity="0.43"/><g transform="translate(0 0)"><circle cx="50" cy="50" r="50" transform="translate(-0.197 -0.452)" fill="#fff"/><ellipse cx="38" cy="37.5" rx="38" ry="37.5" transform="translate(12.803 11.548)" fill="#161621"/><ellipse cx="29" cy="29.5" rx="29" ry="29.5" transform="translate(21.803 19.548)" fill="#1e1e2e"/><circle cx="13" cy="13" r="13" transform="translate(37.803 36.548)" fill="#0f0f17"/></g><g transform="translate(0 116.353)"><circle cx="50" cy="50" r="50" transform="translate(-0.197 0.195)" fill="#fff"/><circle cx="38" cy="38" r="38" transform="translate(12.803 11.195)" fill="#161621"/><ellipse cx="29" cy="29.5" rx="29" ry="29.5" transform="translate(21.803 19.195)" fill="#1e1e2e"/><circle cx="13" cy="13" r="13" transform="translate(37.803 36.195)" fill="#0f0f17"/></g><ellipse cx="12.5" cy="14" rx="12.5" ry="14" transform="translate(143.803 93.548)" fill="#0f0f17"/><circle cx="11.5" cy="11.5" r="11.5" transform="translate(143.803 14.548)" fill="#fff" opacity="0.43"/></g><path d="M8,0H8A0,0,0,0,1,8,0V142a0,0,0,0,1,0,0H8a8,8,0,0,1-8-8V8A8,8,0,0,1,8,0Z" transform="translate(-0.117 223.35)" fill="#ced1e0"/></g><g transform="translate(198.292 0)"><g transform="matrix(1, 0, 0, 1, -198.41, -5.85)" filter="url(#a)"><path d="M42,0H521a42,42,0,0,1,42,42V657a0,0,0,0,1,0,0H0a0,0,0,0,1,0,0V42A42,42,0,0,1,42,0Z" transform="translate(198 6)" fill="#989aad"/></g><path d="M38,0H511a38,38,0,0,1,38,38V651a0,0,0,0,1,0,0H0a0,0,0,0,1,0,0V38A38,38,0,0,1,38,0Z" transform="translate(6.591 6.148)" fill="#161621"/><path d="M513,626H0V56.748A56.743,56.743,0,0,1,56.8,0h73.665V25.248a10.012,10.012,0,0,0,10,10H372.532a10.011,10.011,0,0,0,10-10V0H456.2A56.713,56.713,0,0,1,513,56.748V626Z" transform="translate(22.591 31.148)" fill="#f3f4f9"/><rect width="16" height="20" rx="8" transform="translate(314.591 24.148)" fill="#fff" opacity="0.16"/><rect width="70" height="11" rx="5.5" transform="translate(234.591 28.148)" fill="#fff" opacity="0.16"/><path d="M0,0H1A10,10,0,0,1,11,10V203A10,10,0,0,1,1,213H0a0,0,0,0,1,0,0V0A0,0,0,0,1,0,0Z" transform="translate(562.591 208.148)" fill="#989aad"/></g><rect width="44" height="547" transform="translate(153.883 110.148)" fill="#bdbfd1" opacity="0.34"/></g><text transform="translate(470.883 456.148)" fill="#24272d" font-size="27" font-family="GothamPro-Bold, Gotham Pro" font-weight="700"><tspan x="-145.895" y="0">Определим ваш тип </tspan><tspan x="-172.8" y="30">личности за пару минут!</tspan></text><path d="M15,0H241a15,15,0,0,1,15,15v0a0,0,0,0,1,0,0H0a0,0,0,0,1,0,0v0A15,15,0,0,1,15,0Z" transform="translate(356.883 642.148)" fill="#ef4864"/><text transform="translate(481.883 534.148)" fill="#24272d" font-size="16" font-family="GothamPro, Gotham Pro"><tspan x="-127.76" y="0">С этими знаниями вы сможете </tspan><tspan x="-157.144" y="18">лучше понять, какие Hard и Soft Skills </tspan><tspan x="-134.84" y="36">стоит освоить в первую очередь</tspan></text><g transform="translate(393.22 143.971)"><path d="M4175.906,611.545c.829-.808,31.42-46.387,42-54.23,1.677-1.244-15.608-20.642-18.543-20.325-18.705,2.024-27.655,6.37-41.953,19.7-.093.086-25.31,24.219-25.537,24.625,0,0,10.881,10.863,17.694,15.687C4174.178,614.433,4175.291,612.143,4175.906,611.545Z" transform="translate(-4016.215 -395.58)" fill="#10768f" fill-rule="evenodd"/><g transform="matrix(1, 0, 0, 1, -393.34, -149.82)" filter="url(#c)"><path d="M4226.3,574.846c-.021-.253-9.739-13.744-14.319-21.706-3.913-6.8,33.623-12.211,37.509-13.048,0,0,7.948-31.611,8.156-36.311.091-2.084-53.928.059-56.288,1.831-11.538,8.675-30.646,27.157-32.705,41.468-2.051,14.266,1.445,28.286,6.72,41.491,0,0,15.653-5.883,23.691-8.128C4228.108,572.331,4226.371,575.7,4226.3,574.846Z" transform="translate(-3635.95 -233.45)" fill="#00a7cf" fill-rule="evenodd"/></g><path d="M4291.132,512.95c.963-9.517-6.57-23.89-6.409-27.5.093-2.085-69.493,12.005-71.854,13.778a134.39,134.39,0,0,0-13.043,11.308s17.931,15.423,34.739,23.176c8.688,4.007,27.229.778,39.807-3.733C4284.71,527.179,4290.742,518.682,4291.132,512.95Z" transform="translate(-4040.763 -376.885)" fill="#10768f" fill-rule="evenodd"/><path d="M4194.253,355.984c-6.794,2.009-21.512-19.231-9.229-33.312a22.408,22.408,0,0,1,13.681-6.932,20.146,20.146,0,0,1,14.775,4.2c2.32,2.031,6.771,5.871,8.146,9.366a10.131,10.131,0,0,1,.857,2.3c.125.485-13.564,12.594-20.5,18.8C4201.223,351.083,4194.676,355.858,4194.253,355.984Z" transform="translate(-4033.706 -315.605)" fill="#1f2024" fill-rule="evenodd"/><path d="M4217.265,365.609c-.11-.1-2.354-2.029-3.192-2.827-.46-.439,1.278-1.493,1.863-1.535l3.243,3.359C4220.279,365.159,4218.565,366.842,4217.265,365.609Z" transform="translate(-4045.883 -332.093)" fill="#10758e" fill-rule="evenodd"/><path d="M4198.093,355.332c6.117,0,11.105-4.1,11.105-9.12s-4.988-9.121-11.105-9.121-11.106,4.1-11.106,9.121S4191.977,355.332,4198.093,355.332Z" transform="translate(-4036.126 -323.367)" fill="#00a7cf" fill-rule="evenodd"/><path d="M4178.047,430.6c-1.3-.476-3.551,2.092-5.668,2.126-3.729.062-9.535-2.42-9.574-2.144-.756,5.444-8.062,10.578-13.46,5.311-.009-.008-1.843,8.044-8.378,6.711-3.591-.733-15.307-4.822-15.347-6.678s-3.553-8.868-3.553-8.868c3.9-.927-3.038-8.454,3.467-13.863,1.712-1.423,6.531-.451,8.085-1.948.121-.116-1.9-.7-2.917-2.372a8.407,8.407,0,0,1-.549-6.932c3.076-6.683,11.648-3.8,11.676-3.831.422-.574-2.042-1.468-2.373-3.465-.48-2.911-.1-7,1.277-8.755,5.084-6.461,12.185-4.669,12.951-5.655,2.288-2.947,3.413-4.957,5-7.231,4.395-6.281,12.215-7.422,17.066-1.161.846,1.091-2.072-2.491,5.031-7.606,1.017-.732,4.105-3.1,6.643-3.521,3.148-.523,5.863.884,7.59-.457,2.915-2.262-.126-8.976,12.477-9.758a17.014,17.014,0,0,1,7.763,1.811c5.607,2.606,5.729,8.481,7.079,7.268a22.608,22.608,0,0,1,9.053-3.972,16.966,16.966,0,0,1,11.674,2.554,17.381,17.381,0,0,1,6.2,9.121c1.071,4.761-.6,8.775-.185,8.391,6.384-5.837,20.8.547,17.512,16.417-.987,4.775-6.085,7.035-5.472,7.478.8.579,5.475.167,8.391,3.283,2.792,2.984,3.865,9.436,3.1,12.769-.649,2.826-3.544,7.593-6.932,9.668-4.127,2.526-8.792,2.12-8.573,2.736.4,1.139.717,5.586-1.095,10.215-1.36,3.477-4.32,7.246-7.113,8.756-8.939,4.83-16.85-2.945-17.512-2.372-2.765,2.388-2.372,10.405-10.945,12.769-6.645,1.833-12.817-5.455-12.767-5.107.093.654-12.9,11.236-19.1,6.867-8.342-5.878,1.046-21.937.12-22.6A48.351,48.351,0,0,0,4178.047,430.6Z" transform="translate(-4012.673 -328.204)" fill="#a9bd24" fill-rule="evenodd"/><g transform="translate(15.178 217.693)"><path d="M3984.894,656.417l19.243,15.564-2.446,4.12-10.149,5.474-12.022-9.6,2.63-11.684Z" transform="translate(-3976.355 -656.417)" fill="#ffc62b" fill-rule="evenodd"/><path d="M3974.566,698.073l3.186-17.451,12.177,9.654Z" transform="translate(-3974.566 -665.161)" fill="#24272d" fill-rule="evenodd"/></g><path d="M4010.475,585.164l-1.09-5.695-5.546.367,123.943-175.144,6.627,5.416Z" transform="translate(-3969.962 -347.788)" fill="#ef4864" fill-rule="evenodd"/><path d="M4000.27,577.035l-.915-5.671-5.594.378,124-175.014,6.5,5.236Z" transform="translate(-3966.323 -344.911)" fill="#da3a55" fill-rule="evenodd"/><path d="M3990.215,568.814l-1.155-5.757-5.425.426,123.933-175.055,6.579,5.331Z" transform="translate(-3962.664 -341.912)" fill="#ca3750" fill-rule="evenodd"/><path d="M4197.2,400.742l-19.542-15.806q2.187-3.086,4.372-6.173c8.828,2,15.267,7.372,19.541,15.806Z" transform="translate(-4032.756 -338.421)" fill="#24272d" fill-rule="evenodd"/><g transform="matrix(1, 0, 0, 1, -393.34, -149.82)" filter="url(#e)"><path d="M4219.881,430.945c-3.6-1.317-5.047-4.812-5.107-4.377-.912,6.566-7.438,9.258-8.938,9.667-5.088,1.391-12.276-1.227-14.044-3.648-1.1-1.5-3.466-4.925-3.466-4.925-.888,1.109-4.277,5.512-8.938,4.561-3.593-.733-6.621-3.321-6.662-5.178-.055-2.441-3.369-.751-6.591-.482-2.483-1.232-2.84-6.989,3.04-8.386,3.9-.927-3.874-7.673,2.629-13.081,10.271-8.543,13.229,2.274,15.145-.6.571-.856-4.021-9.722,6.409-15.719,2.9-1.666,12.805-.735,13.027-.878,1.23-.8-2.9-3.174-3.033-6.24-.19-4.41,4.1-4.443,5.518-6.9.227-.392-5.538-.4-5.518-3.23a17.421,17.421,0,0,1,2.122-7.523c3.879-5.811,10-.855,10.337-.927,1.682-.353.992-4.37,3.526-6.917,2.4-2.411,8-3.378,10.4-3.1,1.6.185,6.34,2.03,7.371,5.215,1.662,5.139-.386,6.527.108,6.46,1.683-.229,4.316-3.228,7.407-3.648,6.357-.864,11.336,6.206,10.469,12.039-.391,2.63-2.9,3.841-1.642,4.378,2.73,1.165,8.566-3.166,12.4,5.59,4.275,9.77-4.995,11.944-4.553,13.2.317.9,6.933,12.951-1.094,19.882-10.192,8.8-21.056-.547-20.976,0a15.966,15.966,0,0,1-3.285,11.309C4233.246,430.762,4228.581,434.132,4219.881,430.945Z" transform="translate(-3634.64 -179.3)" fill="#d1e92a" fill-rule="evenodd"/></g><path d="M4115.108,473.767a2.735,2.735,0,0,1,1.112-1.055c1.014-.409,1.67.66,3.465.547a20.243,20.243,0,0,0,3.1-.821c.715-.128.52.225-.934,1.329-1.123.852-2.146.721-2.07.92a4.419,4.419,0,0,0,2.091.031c.888-.158,2.584-1.564,3.01-1,.527.694-3.77,2.044-3.557,2.1a10.937,10.937,0,0,0,2.06-.282c1.627-.308.375.786.128.921-.939.517-3.788,1.279-3.48,1.532.654.538,2.568-.619,3.392-.346.089.029-.167.5-.821.912a12.6,12.6,0,0,1-5.381,1.368,3.926,3.926,0,0,1-3.649-1.277,1.81,1.81,0,0,1-.285-2.245C4113.457,476.005,4115.105,473.771,4115.108,473.767Z" transform="translate(-4009.412 -372.252)" fill="#00a7cf" fill-rule="evenodd"/><path d="M4150.623,457.658c-3.31-3.9.122-1.123.218-1.242.9-1.127-1.9-2.532-1.4-3.318.465-.736,2.785,2.223,2.722,2.013-.011-.042.505-.195.384-.383a39.917,39.917,0,0,0-2.833-3.089c-.621-.7-.039-1.034.507-.935,1.069.194,3.635,3.923,3.688,3.58.127-.838-2.085-2.436-2.269-3.282-.287-1.322,3.05,2.14,3.728,2.917a5.724,5.724,0,0,0,2.371,1.551c2.007.547,3.183,5.371,2.829,6.11C4159.2,464.423,4152.868,460.308,4150.623,457.658Z" transform="translate(-4022.47 -364.403)" fill="#00a7cf" fill-rule="evenodd"/><path d="M4117.407,666.778c-.106-.1-2.627,1.159-3.465.361-.459-.437,19.841-30.172,25.393-40.731l7.965,5.849C4142.174,638.426,4118.707,668.009,4117.407,666.778Z" transform="translate(-4009.735 -427.884)" fill="#24272d" fill-rule="evenodd"/><path d="M4237.885,664.722c-.142.042-2.667.379-3.776.706-.609.179-18.523-30.791-24.888-40.882l10.231-3.613C4222.229,628.457,4239.6,664.214,4237.885,664.722Z" transform="translate(-4044.158 -425.906)" fill="#24272d" fill-rule="evenodd"/><path d="M28.91,0c15.966,0,28.91,1.167,28.91,2.606S44.876,5.212,28.91,5.212,0,4.045,0,2.606,12.943,0,28.91,0Z" transform="translate(168.007 257.455)" fill="#24272d"/><path d="M4096.061,721.14c12.832,0,23.235,1.047,23.235,2.338s-10.4,2.338-23.235,2.338-23.237-1.047-23.237-2.338S4083.228,721.14,4096.061,721.14Z" transform="translate(-3994.884 -462.106)" fill="#24272d" fill-rule="evenodd"/><path d="M3965.981,705.659c8.384,0,15.18,1.047,15.18,2.338s-6.8,2.338-15.18,2.338S3950.8,709.288,3950.8,708,3957.6,705.659,3965.981,705.659Z" transform="translate(-3950.804 -456.513)" fill="#24272d" fill-rule="evenodd"/><path d="M4248.306,702.616c-.5.341-34.521,2.508-34.476,2.19.115-.809.354-2.127,1.46-2.554,2-.776,5.382-.476,7.752-1.277a18.432,18.432,0,0,0,6.812-4.828,31.6,31.6,0,0,0,4.514-7.022c2.229-.883,9.378-2.377,10.108-1.283C4244.865,688.426,4248.733,702.322,4248.306,702.616Z" transform="translate(-4045.822 -449.937)" fill="#ef4864" fill-rule="evenodd"/><path d="M4108.423,704.043c-.526.29-34.6-.882-34.525-1.194.194-.793.559-2.082,1.7-2.4,2.071-.577,5.4.052,7.84-.512a18.439,18.439,0,0,0,7.251-4.139,31.628,31.628,0,0,0,5.18-6.547c2.3-.661,9.565-1.448,10.185-.287C4106.385,689.584,4108.877,703.793,4108.423,704.043Z" transform="translate(-3995.272 -450.268)" fill="#ef4864" fill-rule="evenodd"/><path d="M4248.073,717.491c2.062-.429-.033-6.3-.033-6.3-5.569,0-31.347,2.25-34.13,2.221-.284,0-.924,1.161-.8,2.339a8.055,8.055,0,0,0,1.1,2.938c2.586-.12,10.382.224,14.218-.293,1.677-.227,3.735-4.851,5.562-4.834,3.209.029,2.337,3.358,3.1,4.378C4237.094,717.94,4247.054,717.7,4248.073,717.491Z" transform="translate(-4045.556 -458.511)" fill="#bdd426" fill-rule="evenodd"/><path d="M4107.449,718.543c2.095-.225.585-6.274.585-6.274-5.541-.545-31.416-.827-34.183-1.129-.282-.031-1.033,1.065-1.028,2.25a8.086,8.086,0,0,0,.812,3.032c2.588.134,10.311,1.239,14.18,1.1,1.69-.061,4.192-4.462,6.008-4.266,3.189.343,2,3.571,2.658,4.66C4096.481,717.914,4106.416,718.654,4107.449,718.543Z" transform="translate(-3994.884 -458.493)" fill="#bdd426" fill-rule="evenodd"/><g transform="matrix(1, 0, 0, 1, -393.34, -149.82)" filter="url(#g)"><path d="M4185.666,350.459a61.4,61.4,0,0,1-3.735-5.74c-3.925-7.176-2.417-15.969,2.886-22.048,3.437-3.939,8.938-6.3,13.682-6.932a21.061,21.061,0,0,1,11.669,2.152c4.578,2.406,7.252,5.924,6.265,4.9-2.649-2.74-24.4,13.646-24.4,13.646S4183.029,347.421,4185.666,350.459Z" transform="translate(-3640.16 -165.78)" fill="#24272d" fill-rule="evenodd"/></g><path d="M4189.618,351.219a43.151,43.151,0,0,1,6.9-8.855,39.639,39.639,0,0,1,10.972-7.716" transform="translate(-4036.927 -322.248)" fill="none" stroke="#fff" stroke-linecap="round" stroke-miterlimit="22.926" stroke-width="0.96" fill-rule="evenodd"/><path d="M4247.868,377.182l-5.84,2.874,1.292-4.254,4.548,1.38Zm-2.92,1.437-2.272-.69,2.919-1.437" transform="translate(-4056.01 -337.351)" fill="#24272d" fill-rule="evenodd"/><path d="M4292.871,377.182l-5.839,2.874,1.29-4.254,4.549,1.38Zm-2.92,1.437-2.273-.69,2.918-1.437" transform="translate(-4072.267 -337.351)" fill="#24272d" fill-rule="evenodd"/><path d="M4266.828,387.88l-5.838,2.874,1.29-4.254,4.548,1.38Zm-2.921,1.437-2.272-.69,2.919-1.437" transform="translate(-4062.859 -341.216)" fill="#24272d" fill-rule="evenodd"/><path d="M4257.688,413.181l-5.838,2.874,1.291-4.254,4.547,1.38Zm-2.92,1.437-2.272-.69,2.918-1.437" transform="translate(-4059.559 -350.356)" fill="#24272d" fill-rule="evenodd"/><path d="M4283.73,398.578l-5.839,2.874,1.292-4.254,4.547,1.38Zm-2.92,1.436-2.272-.69,2.919-1.437" transform="translate(-4068.965 -345.081)" fill="#24272d" fill-rule="evenodd"/><path d="M4306.388,409.5l-5.837,2.874,1.289-4.254,4.548,1.38Zm-2.917,1.437-2.275-.69,2.92-1.437" transform="translate(-4077.151 -349.025)" fill="#24272d" fill-rule="evenodd"/><path d="M4285.907,427.074l-5.837,2.874,1.29-4.254,4.547,1.38Zm-2.918,1.437-2.274-.691,2.919-1.436" transform="translate(-4069.753 -355.375)" fill="#24272d" fill-rule="evenodd"/><path d="M4260,437.694l-5.84,2.874,1.292-4.254,4.548,1.38Zm-2.921,1.437-2.274-.69,2.921-1.437" transform="translate(-4060.392 -359.211)" fill="#24272d" fill-rule="evenodd"/><path d="M4241.37,428.243l-5.839,2.874,1.292-4.254,4.547,1.38Zm-2.919,1.437-2.275-.69,2.919-1.437" transform="translate(-4053.662 -355.797)" fill="#24272d" fill-rule="evenodd"/><path d="M4216.363,421.583l-5.838,2.874,1.291-4.254,4.547,1.38Zm-2.919,1.436-2.272-.69,2.919-1.436" transform="translate(-4044.629 -353.391)" fill="#24272d" fill-rule="evenodd"/><path d="M4217.216,445.406l-5.837,2.874,1.289-4.254,4.548,1.38Zm-2.917,1.437-2.275-.69,2.92-1.436" transform="translate(-4044.938 -361.997)" fill="#24272d" fill-rule="evenodd"/><path d="M4238.782,454.686l-5.838,2.874,1.291-4.254,4.547,1.38Zm-2.919,1.437-2.274-.69,2.919-1.437" transform="translate(-4052.728 -365.35)" fill="#24272d" fill-rule="evenodd"/><path d="M4265.019,458.016l-5.838,2.874,1.291-4.254,4.547,1.38Zm-2.918,1.437-2.274-.69,2.92-1.436" transform="translate(-4062.206 -366.553)" fill="#24272d" fill-rule="evenodd"/><path d="M4306.388,438.863l-5.837,2.874,1.289-4.254,4.548,1.38Zm-2.917,1.437-2.275-.69,2.92-1.437" transform="translate(-4077.151 -359.634)" fill="#24272d" fill-rule="evenodd"/><path d="M4216.363,470.626l-5.838,2.874,1.291-4.254,4.547,1.38Zm-2.919,1.437-2.272-.691,2.919-1.437" transform="translate(-4044.629 -371.108)" fill="#24272d" fill-rule="evenodd"/><path d="M4192.826,461.346l-5.839,2.874,1.291-4.254,4.548,1.38Zm-2.92,1.437-2.272-.69,2.918-1.437" transform="translate(-4036.126 -367.756)" fill="#24272d" fill-rule="evenodd"/><path d="M4187.914,441.741l-5.837,2.874,1.29-4.254,4.547,1.38ZM4185,443.178m-2.274-.69,2.92-1.437" transform="translate(-4034.352 -360.673)" fill="#24272d" fill-rule="evenodd"/><path d="M4159.408,406.168l-5.839,2.874,1.292-4.254,4.547,1.38Zm-2.919,1.437-2.273-.69,2.92-1.437" transform="translate(-4024.053 -347.823)" fill="#1f2024" fill-rule="evenodd"/><path d="M4219.833,376.813,4214,379.687l1.291-4.254,4.547,1.38Zm-2.918,1.437-2.275-.69,2.92-1.437" transform="translate(-4045.882 -337.218)" fill="#1f2024" fill-rule="evenodd"/><path d="M4310.962,367.753l-5.84,2.874,1.29-4.254,4.55,1.38Zm-2.922,1.437-2.271-.69,2.918-1.436" transform="translate(-4078.802 -333.945)" fill="#1f2024" fill-rule="evenodd"/><path d="M4315.531,384.55l-5.84,2.874,1.292-4.254,4.547,1.38Zm-2.92,1.437-2.274-.69,2.921-1.437" transform="translate(-4080.453 -340.013)" fill="#1f2024" fill-rule="evenodd"/><path d="M4330.8,394.54l-5.838,2.874,1.292-4.254,4.546,1.38Zm-2.919,1.437-2.273-.691,2.92-1.436" transform="translate(-4085.969 -343.622)" fill="#1f2024" fill-rule="evenodd"/><path d="M4335.37,416.511l-5.841,2.874,1.292-4.254,4.549,1.38Zm-2.921,1.437-2.272-.69,2.918-1.436" transform="translate(-4087.619 -351.559)" fill="#1f2024" fill-rule="evenodd"/><path d="M4328.629,437.694l-5.839,2.874,1.292-4.254,4.547,1.38Zm-2.92,1.437-2.273-.69,2.921-1.437" transform="translate(-4085.186 -359.211)" fill="#1f2024" fill-rule="evenodd"/><path d="M4350.868,441.024l-5.84,2.874,1.292-4.254,4.548,1.38Zm-2.92,1.437-2.274-.691,2.92-1.437" transform="translate(-4093.219 -360.414)" fill="#1f2024" fill-rule="evenodd"/><path d="M4333.2,461.346l-5.839,2.874,1.292-4.254,4.547,1.38Zm-2.921,1.437-2.271-.69,2.919-1.437" transform="translate(-4086.837 -367.756)" fill="#1f2024" fill-rule="evenodd"/><path d="M4310.962,461.346l-5.84,2.874,1.292-4.254,4.548,1.38Zm-2.92,1.437-2.273-.69,2.92-1.437" transform="translate(-4078.802 -367.756)" fill="#1f2024" fill-rule="evenodd"/><path d="M4289.191,462.276l-5.84,2.874,1.291-4.254,4.549,1.38Zm-2.92,1.437-2.272-.69,2.917-1.437" transform="translate(-4070.938 -368.092)" fill="#1f2024" fill-rule="evenodd"/><path d="M4315.532,477.286l-5.84,2.874,1.291-4.254,4.549,1.38Zm-2.92,1.437-2.272-.691,2.917-1.436" transform="translate(-4080.454 -373.514)" fill="#1f2024" fill-rule="evenodd"/><path d="M4315.532,496.262l-5.84,2.873,1.291-4.254,4.549,1.381Zm-2.92,1.437-2.272-.69,2.917-1.437" transform="translate(-4080.454 -380.369)" fill="#1f2024" fill-rule="evenodd"/><path d="M4289.191,481.961l-5.84,2.874,1.291-4.254,4.549,1.38Zm-2.92,1.437-2.272-.69,2.917-1.437" transform="translate(-4070.938 -375.203)" fill="#1f2024" fill-rule="evenodd"/><path d="M4265.019,480.616l-5.838,2.874,1.291-4.254,4.547,1.38Zm-2.918,1.437-2.274-.69,2.92-1.437" transform="translate(-4062.206 -374.717)" fill="#1f2024" fill-rule="evenodd"/><path d="M4274.161,503.423l-5.84,2.874,1.292-4.254,4.548,1.381Zm-2.919,1.436-2.273-.69,2.918-1.437" transform="translate(-4065.507 -382.956)" fill="#1f2024" fill-rule="evenodd"/><path d="M4241.37,483.286l-5.839,2.874,1.292-4.254,4.547,1.38Zm-2.919,1.437-2.275-.691,2.919-1.437" transform="translate(-4053.662 -375.682)" fill="#1f2024" fill-rule="evenodd"/><path d="M4250.855,492.931l-5.839,2.874,1.292-4.254,4.546,1.38Zm-2.919,1.437-2.273-.691,2.92-1.437" transform="translate(-4057.088 -379.166)" fill="#1f2024" fill-rule="evenodd"/><path d="M4235.748,509.663l-5.839,2.874,1.291-4.254,4.548,1.38Zm-2.919,1.437-2.273-.69,2.919-1.437" transform="translate(-4051.633 -385.21)" fill="#1f2024" fill-rule="evenodd"/><path d="M4220.934,391.21l-5.838,2.874,1.291-4.254,4.547,1.38Zm-2.919,1.437-2.273-.69,2.921-1.437" transform="translate(-4046.28 -342.419)" fill="#1f2024" fill-rule="evenodd"/><path d="M4174.041,477.286l-5.837,2.874,1.29-4.254,4.548,1.38Zm-2.919,1.437-2.273-.691,2.919-1.436" transform="translate(-4029.34 -373.514)" fill="#24272d" fill-rule="evenodd"/><path d="M4240.785,398.578l-5.838,2.874,1.293-4.254,4.545,1.38Zm-2.918,1.436-2.274-.69,2.918-1.437" transform="translate(-4053.452 -345.081)" fill="#24272d" fill-rule="evenodd"/><path d="M4269.59,362.628l-5.838,2.874,1.29-4.254,4.548,1.38Zm-2.919,1.436-2.273-.69,2.919-1.437" transform="translate(-4063.858 -332.094)" fill="#24272d" fill-rule="evenodd"/><path d="M4207.875,579.388c-4.4-7.972-8.628-34.082-.125-40.76,9.62-7.555,55.226,2.73,52.819-40.76" transform="translate(-4041.853 -381.448)" fill="none" stroke="#f0eded" stroke-miterlimit="22.926" stroke-width="0.96" fill-rule="evenodd"/><path d="M4333.3,518.529c-13.8,0-16.385-14.543-16.607-15.3" transform="translate(-4082.981 -383.386)" fill="none" stroke="#f0eded" stroke-miterlimit="22.926" stroke-width="0.96" fill-rule="evenodd"/><g transform="translate(92.835 242.122)"><path d="M2.3,0C.43,2.539,0,3.164,0,3.164" transform="translate(0 7.734) rotate(-73)" fill="#f5f5f5" stroke="#f5f5f5" stroke-linecap="round" stroke-width="1"/><path d="M2.3,0C.43,2.539,0,3.164,0,3.164" transform="translate(1.753 5.891) rotate(-73)" fill="#f5f5f5" stroke="#f5f5f5" stroke-linecap="round" stroke-width="1"/><path d="M2.3,0C.43,2.539,0,3.164,0,3.164" transform="translate(3.507 4.047) rotate(-73)" fill="#f5f5f5" stroke="#f5f5f5" stroke-linecap="round" stroke-width="1"/><path d="M2.3,0C.43,2.539,0,3.164,0,3.164" transform="translate(5.26 2.204) rotate(-73)" fill="#f5f5f5" stroke="#f5f5f5" stroke-linecap="round" stroke-width="1"/></g><g transform="translate(181.898 242.011)"><path d="M2.3,0C.43,2.539,0,3.164,0,3.164" transform="matrix(0.208, -0.978, 0.978, 0.208, 0, 8.222)" fill="#f5f5f5" stroke="#f5f5f5" stroke-linecap="round" stroke-width="1"/><path d="M2.3,0C.43,2.539,0,3.164,0,3.164" transform="matrix(0.208, -0.978, 0.978, 0.208, 1.586, 6.233)" fill="#f5f5f5" stroke="#f5f5f5" stroke-linecap="round" stroke-width="1"/><path d="M2.3,0C.43,2.539,0,3.164,0,3.164" transform="matrix(0.208, -0.978, 0.978, 0.208, 3.172, 4.244)" fill="#f5f5f5" stroke="#f5f5f5" stroke-linecap="round" stroke-width="1"/><path d="M2.3,0C.43,2.539,0,3.164,0,3.164" transform="matrix(0.208, -0.978, 0.978, 0.208, 4.758, 2.254)" fill="#f5f5f5" stroke="#f5f5f5" stroke-linecap="round" stroke-width="1"/></g></g><ellipse cx="9.725" cy="9.725" rx="9.725" ry="9.725" transform="translate(349.033 294.353)" fill="#ef4864"/><ellipse cx="17.505" cy="17.505" rx="17.505" ry="17.505" transform="translate(317.912 239.892)" fill="#00a7cf"/><ellipse cx="15.29" cy="15.29" rx="15.29" ry="15.29" transform="translate(376.263 251.563)" fill="#d1e92a"/><ellipse cx="17.505" cy="17.505" rx="17.505" ry="17.505" transform="translate(356.813 197.102)" fill="#24272d"/><ellipse cx="17.505" cy="17.505" rx="17.505" ry="17.505" transform="translate(314.022 165.982)" fill="#ef4864"/><ellipse cx="13.591" cy="13.591" rx="13.591" ry="13.591" transform="translate(403.493 169.872)" fill="#00a7cf"/></g></svg>