<svg xmlns="http://www.w3.org/2000/svg" width="31" height="31" viewBox="0 0 31 31">
  <g id="Сгруппировать_8917" data-name="Сгруппировать 8917" transform="translate(-1262 -6123)">
    <g id="Сгруппировать_8916" data-name="Сгруппировать 8916">
      <rect id="Прямоугольник_2777" data-name="Прямоугольник 2777" width="31" height="31" rx="6" transform="translate(1262 6123)" fill="#fff"/>
      <path id="vk" d="M16.909,118.2a26.743,26.743,0,0,1,1.924,1.935,5.624,5.624,0,0,1,.69.994c.265.513.025,1.079-.435,1.109H16.225a2.21,2.21,0,0,1-1.822-.741c-.4-.4-.763-.833-1.144-1.25a2.711,2.711,0,0,0-.515-.458.6.6,0,0,0-.953.232,3.007,3.007,0,0,0-.3,1.335c-.031.674-.234.851-.911.882a7.319,7.319,0,0,1-4.1-.881,9.049,9.049,0,0,1-2.756-2.58A34.737,34.737,0,0,1,.1,112.308c-.229-.51-.062-.783.5-.793.934-.018,1.867-.017,2.8,0a.823.823,0,0,1,.777.582,17.37,17.37,0,0,0,1.9,3.519,3,3,0,0,0,.717.789.436.436,0,0,0,.741-.218,2.442,2.442,0,0,0,.165-.738,10.992,10.992,0,0,0-.046-2.587,1.078,1.078,0,0,0-.918-.987c-.274-.052-.233-.154-.1-.31a1.029,1.029,0,0,1,.878-.437h3.235c.509.1.622.329.692.842l0,3.593c-.006.2.1.787.456.918.286.093.474-.135.646-.317a11.141,11.141,0,0,0,1.821-2.8c.219-.442.408-.9.59-1.361a.693.693,0,0,1,.731-.5l3.113,0a1.641,1.641,0,0,1,.275.017c.525.089.668.315.506.827a7.773,7.773,0,0,1-1.238,2.146c-.519.718-1.074,1.412-1.589,2.135-.473.66-.435.993.152,1.566Z" transform="translate(1267.677 6021.814)" fill="#24272d"/>
    </g>
  </g>
</svg>
