<svg xmlns="http://www.w3.org/2000/svg" width="196.347" height="36.14" viewBox="0 0 196.347 36.14"><g transform="translate(-232 -76.86)"><g transform="translate(232 76.86)"><g transform="translate(0)"><path d="M18.055,38.135a5.809,5.809,0,0,1-5.789-5.293A5.8,5.8,0,0,1,8.046,23.7a4.813,4.813,0,0,1,1.231-9.141,4.714,4.714,0,0,1-.435-2A4.833,4.833,0,0,1,12.29,7.937a4.629,4.629,0,0,1-.133-1.1A4.849,4.849,0,0,1,17.125,2a4.956,4.956,0,0,1,4.7,5.008v28.1a2.891,2.891,0,0,1-2.044,2.772,5.816,5.816,0,0,1-1.73.258ZM17,3.03a3.788,3.788,0,0,0-3.572,5.11.516.516,0,0,1-.4.681,3.805,3.805,0,0,0-3.157,3.744A3.64,3.64,0,0,0,10.55,14.7a.516.516,0,0,1-.419.817,3.853,3.853,0,0,0-3.885,3.81,3.8,3.8,0,0,0,2.788,3.636.516.516,0,0,1,.244.844A4.831,4.831,0,0,0,8,27.047a4.778,4.778,0,0,0,4.762,4.784.516.516,0,0,1,.516.516,4.785,4.785,0,0,0,6.2,4.543A1.863,1.863,0,0,0,20.8,35.105V7.005A3.916,3.916,0,0,0,17.1,3.03Z" transform="translate(-5.213 -1.995)" fill="#24272d"/></g><g transform="translate(17.554)"><path d="M8.988,38.135a5.809,5.809,0,0,0,5.789-5.293A5.8,5.8,0,0,0,19,23.7a4.813,4.813,0,0,0-1.231-9.141,4.714,4.714,0,0,0,.435-2,4.833,4.833,0,0,0-3.449-4.628,4.629,4.629,0,0,0,.133-1.1A4.849,4.849,0,0,0,9.918,2a4.956,4.956,0,0,0-4.7,5.008v28.1a2.891,2.891,0,0,0,2.044,2.772,5.816,5.816,0,0,0,1.73.258ZM10.044,3.03a3.788,3.788,0,0,1,3.572,5.11.516.516,0,0,0,.4.681,3.805,3.805,0,0,1,3.157,3.744,3.64,3.64,0,0,1-.676,2.137.516.516,0,0,0,.419.817A3.853,3.853,0,0,1,20.8,19.33a3.8,3.8,0,0,1-2.788,3.636.516.516,0,0,0-.244.844,4.831,4.831,0,0,1,1.279,3.237,4.778,4.778,0,0,1-4.762,4.784.516.516,0,0,0-.516.516,4.785,4.785,0,0,1-6.2,4.543,1.863,1.863,0,0,1-1.321-1.785V7.005a3.916,3.916,0,0,1,3.7-3.975Z" transform="translate(-5.213 -1.995)" fill="#24272d"/></g><ellipse cx="2.882" cy="2.882" rx="2.882" ry="2.882" transform="translate(8.927 2.016)" fill="#24272d"/><ellipse cx="2.872" cy="2.872" rx="2.872" ry="2.872" transform="translate(19.489 2.03)" fill="#ef4864"/><ellipse cx="3.503" cy="3.503" rx="3.503" ry="3.503" transform="translate(5.444 7.46)" fill="#d1e92a"/><ellipse cx="3.511" cy="3.511" rx="3.511" ry="3.511" transform="translate(21.723 7.456)" fill="#00a7cf"/><ellipse cx="3.182" cy="3.202" rx="3.182" ry="3.202" transform="translate(1.921 14.145)" fill="#ef4864"/><ellipse cx="3.192" cy="3.192" rx="3.192" ry="3.192" transform="translate(25.872 14.158)" fill="#24272d"/><ellipse cx="3.663" cy="3.663" rx="3.663" ry="3.663" transform="translate(3.523 21.51)" fill="#00a7cf"/><ellipse cx="3.67" cy="3.67" rx="3.67" ry="3.67" transform="translate(23.319 21.499)" fill="#d1e92a"/><ellipse cx="3.042" cy="3.042" rx="3.042" ry="3.042" transform="translate(9.247 28.196)" fill="#ef4864"/><ellipse cx="3.032" cy="3.032" rx="3.032" ry="3.032" transform="translate(18.851 28.201)" fill="#24272d"/><ellipse cx="3.363" cy="3.363" rx="3.363" ry="3.363" transform="translate(8.606 15.427)" fill="#24272d"/><ellipse cx="3.351" cy="3.351" rx="3.351" ry="3.351" transform="translate(18.851 15.434)" fill="#ef4864"/><ellipse cx="1.601" cy="1.581" rx="1.601" ry="1.581" transform="translate(12.129 11.944)" fill="#00a7cf"/><ellipse cx="1.596" cy="1.596" rx="1.596" ry="1.596" transform="translate(18.851 11.924)" fill="#d1e92a"/><ellipse cx="2.082" cy="2.062" rx="2.082" ry="2.062" transform="translate(11.168 23.432)" fill="#d1e92a"/><ellipse cx="2.075" cy="2.075" rx="2.075" ry="2.075" transform="translate(18.851 23.413)" fill="#00a7cf"/><circle cx="1.281" cy="1.281" r="1.281" transform="translate(12.449 7.78)" fill="#ef4864"/><ellipse cx="1.277" cy="1.277" rx="1.277" ry="1.277" transform="translate(19.17 7.774)" fill="#24272d"/></g><g transform="translate(276.035 77.074)"><path d="M5062.512,1275.136a7.271,7.271,0,0,0,1.582,5.115c2.532,2.937,6.3,3.321,9.292,5.287.744.487,1.394,1.368.856,2.258-1.01,1.669-5.073.476-6.455-.168a10.812,10.812,0,0,1-2.493-1.619c-.548.494-3.486,3.512-4.423,4.467a16.006,16.006,0,0,0,9.966,4,12.187,12.187,0,0,0,8.336-2.762,7.192,7.192,0,0,0,1.167-9.245c-2.537-3.634-9.673-4.637-10.74-6.562-.582-1.046.428-2.381,2.2-2.429a11.744,11.744,0,0,1,5.615,2.04c.575-.577,3.108-3.127,3.918-3.952a11.885,11.885,0,0,0-8.25-3.753C5068.364,1267.673,5063.091,1269.931,5062.512,1275.136Z" transform="translate(-5060.872 -1263.384)" fill="#24272d" fill-rule="evenodd"/><path d="M5196.878,1294.5h6.868v-15.311a4.414,4.414,0,0,1,4.4-4.4h.7v-6.936h-1.633a10.363,10.363,0,0,0-10.333,10.332Z" transform="translate(-5116.824 -1263.404)" fill="#24272d" fill-rule="evenodd"/><path d="M5278.837,1260.36h6.9v4.37h5.668v7.375h-5.668v8.005a4.435,4.435,0,0,0,4.422,4.423h.7v6.967h-1.642a10.41,10.41,0,0,1-10.379-10.379v-9.015h-3.315v-7.375h3.315Z" transform="translate(-5149.178 -1260.321)" fill="#24272d" fill-rule="evenodd"/><path d="M5243.718,1294.47h6.7v-11.5c-.036-.561,0-1.133,0-1.713a13.472,13.472,0,1,0-6.7,11.652v1.56Zm-6.774-6.871a6.342,6.342,0,1,1,6.341-6.341A6.342,6.342,0,0,1,5236.944,1287.6Z" transform="translate(-5127.762 -1263.373)" fill="#24272d" fill-rule="evenodd"/><path d="M5115.7,1294.5a13.324,13.324,0,1,1,13.323-13.324A13.324,13.324,0,0,1,5115.7,1294.5Zm0-7.062a6.262,6.262,0,1,0-6.263-6.262A6.262,6.262,0,0,0,5115.7,1287.442Z" transform="translate(-5077.948 -1263.404)" fill="#24272d" fill-rule="evenodd"/><path d="M5168.492,1291.393h7.093V1285a10.755,10.755,0,0,0-5.095-9.122,4.415,4.415,0,0,1,4.4-4.229h.7v-6.935h-1.633a10.366,10.366,0,0,0-10.3,9.551h-2.466v-13.949l-7.11-.018v26.224h7.11v-5.326h2.789a4.532,4.532,0,0,1,4.52,4.52Z" transform="translate(-5099.214 -1260.293)" fill="#24272d" fill-rule="evenodd"/><circle cx="3.461" cy="3.461" r="3.461" transform="translate(145.39 24.227)" fill="#24272d"/></g></g></svg>