<svg xmlns="http://www.w3.org/2000/svg" width="15.914" height="21" viewBox="0 0 15.914 21">
  <path id="Контур_18763" data-name="Контур 18763" d="M77.1,17.719a.82.82,0,0,0-.82.82.774.774,0,0,1-.23.572.89.89,0,0,1-.621.248.754.754,0,0,1-.557-.234l-4.32-4.44a.82.82,0,0,0-1.176,0l-4.32,4.44a.764.764,0,0,1-.561.234.876.876,0,0,1-.621-.243.759.759,0,0,1-.226-.563V3.281a1.642,1.642,0,0,1,1.641-1.641h9.351a1.642,1.642,0,0,1,1.641,1.641v11.2a.82.82,0,0,0,1.641,0V3.281A3.285,3.285,0,0,0,74.635,0H65.283A3.285,3.285,0,0,0,62,3.281V18.553a2.407,2.407,0,0,0,.717,1.733A2.518,2.518,0,0,0,64.475,21h.044a2.392,2.392,0,0,0,1.708-.73l3.732-3.836,3.732,3.836A2.382,2.382,0,0,0,75.4,21a2.532,2.532,0,0,0,1.794-.721,2.423,2.423,0,0,0,.718-1.739A.82.82,0,0,0,77.1,17.719Z" transform="translate(-62.002)" fill="#24272d"/>
</svg>
