<svg id="photo-camera" xmlns="http://www.w3.org/2000/svg" width="16.128" height="14.553" viewBox="0 0 16.128 14.553">
  <g id="Сгруппировать_3200" data-name="Сгруппировать 3200" transform="translate(0 0)">
    <g id="Сгруппировать_3199" data-name="Сгруппировать 3199">
      <path id="Контур_20178" data-name="Контур 20178" d="M15.5,34.513a.63.63,0,0,0,.63-.63v-4.1a2.523,2.523,0,0,0-2.52-2.52h-.956a.63.63,0,0,1-.6-.427l-.191-.56A1.89,1.89,0,0,0,10.076,25H6.051a1.9,1.9,0,0,0-1.778,1.248l-.218.6a.632.632,0,0,1-.593.416H2.52A2.523,2.523,0,0,0,0,29.788v7.245a2.523,2.523,0,0,0,2.52,2.52H13.608a2.523,2.523,0,0,0,2.52-2.52.63.63,0,1,0-1.26,0,1.261,1.261,0,0,1-1.26,1.26H2.52a1.261,1.261,0,0,1-1.26-1.26V29.788a1.261,1.261,0,0,1,1.26-1.26h.942A1.9,1.9,0,0,0,5.24,27.28l.218-.6a.632.632,0,0,1,.593-.416h4.025a.63.63,0,0,1,.6.427l.191.56a1.89,1.89,0,0,0,1.789,1.281h.956a1.261,1.261,0,0,1,1.26,1.26v4.1A.63.63,0,0,0,15.5,34.513Z" transform="translate(0 -25)" fill="#24272d"/>
    </g>
  </g>
  <g id="Сгруппировать_3202" data-name="Сгруппировать 3202" transform="translate(4.158 4.158)">
    <g id="Сгруппировать_3201" data-name="Сгруппировать 3201">
      <path id="Контур_20179" data-name="Контур 20179" d="M135.938,157a3.938,3.938,0,1,0,3.938,3.938A3.942,3.942,0,0,0,135.938,157Zm0,6.615a2.678,2.678,0,1,1,2.678-2.678A2.681,2.681,0,0,1,135.938,163.615Z" transform="translate(-132 -157)" fill="#24272d"/>
    </g>
  </g>
</svg>
