<svg xmlns="http://www.w3.org/2000/svg" width="17.5" height="17.5" viewBox="0 0 17.5 17.5">
  <path id="search" d="M6.494,0a6.49,6.49,0,0,1,5.048,10.575l1.144,1.145a3.2,3.2,0,0,1,1.806.52,16.134,16.134,0,0,1,2.37,1.725l.019.017L16.9,14A2.051,2.051,0,1,1,14,16.9l-.03-.033a17.2,17.2,0,0,1-1.741-2.3,3,3,0,0,1-.553-1.925l-1.1-1.1a6.491,6.491,0,0,1-6.794.854.684.684,0,0,1,.572-1.242A5.126,5.126,0,1,0,2.037,9.03.684.684,0,0,1,.85,9.708,6.5,6.5,0,0,1,6.494,0Zm8.485,15.945a.684.684,0,0,0,.968-.964,15.539,15.539,0,0,0-1.874-1.4,3.653,3.653,0,0,0-1.037-.486A9.056,9.056,0,0,0,14.979,15.945Zm0,0" transform="translate(0)" fill="#a0a1a3"/>
</svg>
