<svg xmlns="http://www.w3.org/2000/svg" width="431.838" height="98.872" viewBox="0 0 431.838 98.872"><g transform="translate(-232 -272.395)"><g transform="translate(232 272.395)"><g transform="translate(0)"><path d="M40.347,100.867A15.893,15.893,0,0,1,24.51,86.386,15.855,15.855,0,0,1,12.962,61.379,13.167,13.167,0,0,1,16.33,36.372a12.9,12.9,0,0,1-1.191-5.459,13.221,13.221,0,0,1,9.436-12.662,12.665,12.665,0,0,1-.364-3,13.148,13.148,0,0,1,4.005-9.487A13.052,13.052,0,0,1,37.8,2,13.559,13.559,0,0,1,50.672,15.7V92.576a7.909,7.909,0,0,1-5.593,7.584,15.913,15.913,0,0,1-4.733.706Zm-2.89-96.04a10.364,10.364,0,0,0-9.772,13.98A1.412,1.412,0,0,1,26.6,20.669a10.41,10.41,0,0,0-8.637,10.244,9.957,9.957,0,0,0,1.85,5.847A1.412,1.412,0,0,1,18.666,39,10.54,10.54,0,0,0,8.036,49.42a10.4,10.4,0,0,0,7.627,9.949,1.412,1.412,0,0,1,.667,2.308,13.217,13.217,0,0,0-3.5,8.855A13.073,13.073,0,0,0,25.859,83.619a1.412,1.412,0,0,1,1.412,1.412A13.09,13.09,0,0,0,44.233,97.46a5.1,5.1,0,0,0,3.614-4.884V15.7A10.713,10.713,0,0,0,37.73,4.827Z" transform="translate(-5.213 -1.995)" fill="#24272d"/></g><g transform="translate(48.023)"><path d="M15.54,100.867A15.893,15.893,0,0,0,31.377,86.386,15.855,15.855,0,0,0,42.924,61.379a13.167,13.167,0,0,0-3.367-25.007,12.9,12.9,0,0,0,1.191-5.459,13.221,13.221,0,0,0-9.436-12.662,12.664,12.664,0,0,0,.364-3,13.148,13.148,0,0,0-4.005-9.487A13.052,13.052,0,0,0,18.085,2,13.559,13.559,0,0,0,5.214,15.7V92.576a7.909,7.909,0,0,0,5.593,7.584,15.912,15.912,0,0,0,4.733.706Zm2.89-96.04A10.364,10.364,0,0,1,28.2,18.806a1.412,1.412,0,0,0,1.086,1.863,10.41,10.41,0,0,1,8.637,10.244,9.957,9.957,0,0,1-1.85,5.847A1.412,1.412,0,0,0,37.221,39,10.54,10.54,0,0,1,47.851,49.42a10.4,10.4,0,0,1-7.627,9.949,1.412,1.412,0,0,0-.667,2.308,13.217,13.217,0,0,1,3.5,8.856A13.073,13.073,0,0,1,30.028,83.619a1.412,1.412,0,0,0-1.412,1.412A13.09,13.09,0,0,1,11.653,97.46a5.1,5.1,0,0,1-3.614-4.884V15.7A10.713,10.713,0,0,1,18.157,4.827Z" transform="translate(-5.213 -1.995)" fill="#24272d"/></g><circle cx="7.885" cy="7.885" r="7.885" transform="translate(24.422 5.516)" fill="#24272d"/><ellipse cx="7.858" cy="7.858" rx="7.858" ry="7.858" transform="translate(53.318 5.553)" fill="#ef4864"/><ellipse cx="9.582" cy="9.582" rx="9.582" ry="9.582" transform="translate(14.894 20.409)" fill="#d1e92a"/><circle cx="9.605" cy="9.605" r="9.605" transform="translate(59.43 20.397)" fill="#00a7cf"/><ellipse cx="8.706" cy="8.761" rx="8.706" ry="8.761" transform="translate(5.257 38.697)" fill="#ef4864"/><circle cx="8.731" cy="8.731" r="8.731" transform="translate(70.781 38.733)" fill="#24272d"/><ellipse cx="10.021" cy="10.021" rx="10.021" ry="10.021" transform="translate(9.637 58.848)" fill="#00a7cf"/><ellipse cx="10.041" cy="10.041" rx="10.041" ry="10.041" transform="translate(63.796 58.816)" fill="#d1e92a"/><circle cx="8.323" cy="8.323" r="8.323" transform="translate(25.298 77.137)" fill="#ef4864"/><circle cx="8.295" cy="8.295" r="8.295" transform="translate(51.572 77.152)" fill="#24272d"/><circle cx="9.199" cy="9.199" r="9.199" transform="translate(23.545 42.204)" fill="#24272d"/><circle cx="9.168" cy="9.168" r="9.168" transform="translate(51.572 42.224)" fill="#ef4864"/><ellipse cx="4.381" cy="4.326" rx="4.381" ry="4.326" transform="translate(33.183 32.676)" fill="#00a7cf"/><circle cx="4.366" cy="4.366" r="4.366" transform="translate(51.572 32.62)" fill="#d1e92a"/><ellipse cx="5.695" cy="5.64" rx="5.695" ry="5.64" transform="translate(30.554 64.106)" fill="#d1e92a"/><ellipse cx="5.675" cy="5.675" rx="5.675" ry="5.675" transform="translate(51.572 64.053)" fill="#00a7cf"/><ellipse cx="3.504" cy="3.504" rx="3.504" ry="3.504" transform="translate(34.059 21.286)" fill="#ef4864"/><ellipse cx="3.493" cy="3.493" rx="3.493" ry="3.493" transform="translate(52.445 21.269)" fill="#24272d"/></g><g transform="translate(342.162 288.714)"><path d="M5064.335,1283.286a15.36,15.36,0,0,0,3.341,10.8c5.347,6.2,13.3,7.013,19.625,11.166,1.571,1.029,2.944,2.889,1.808,4.769-2.132,3.525-10.714,1.005-13.632-.355-2.8-1.3-3.107-1.844-5.264-3.42-1.157,1.043-7.363,7.418-9.34,9.433,6.443,5.167,12.595,8.1,21.047,8.447,5.994.243,13.092-1.711,17.6-5.833,5.357-4.9,6.688-13.477,2.465-19.524-5.358-7.675-20.429-9.794-22.682-13.859-1.229-2.21.9-5.028,4.657-5.129,4.374.472,6.519,1.2,11.858,4.308,1.214-1.218,6.563-6.6,8.275-8.347a25.1,25.1,0,0,0-17.422-7.927C5076.694,1267.525,5065.559,1272.294,5064.335,1283.286Z" transform="translate(-5060.873 -1258.466)" fill="#24272d" fill-rule="evenodd"/><path d="M5196.879,1324.136h14.505V1291.8a9.323,9.323,0,0,1,9.295-9.3h1.471v-14.648H5218.7a21.887,21.887,0,0,0-21.822,21.822Z" transform="translate(-5027.808 -1258.454)" fill="#24272d" fill-rule="evenodd"/><path d="M5282.523,1260.36h14.57v9.23h11.969v15.576h-11.969v16.906a9.366,9.366,0,0,0,9.338,9.34h1.479v14.713h-3.466a21.986,21.986,0,0,1-21.92-21.921v-19.039h-7V1269.59h7Z" transform="translate(-5008.69 -1260.277)" fill="#24272d" fill-rule="evenodd"/><path d="M5266.237,1324.147h14.155v-24.286c-.076-1.185,0-2.393,0-3.618a28.452,28.452,0,1,0-14.155,24.609v3.295Zm-14.306-14.511a13.393,13.393,0,1,1,13.393-13.393A13.394,13.394,0,0,1,5251.931,1309.636Z" transform="translate(-5021.345 -1258.473)" fill="#24272d" fill-rule="evenodd"/><path d="M5130.521,1324.136A28.14,28.14,0,1,1,5158.66,1296a28.14,28.14,0,0,1-28.138,28.14Zm0-14.915A13.225,13.225,0,1,0,5117.295,1296,13.225,13.225,0,0,0,5130.521,1309.222Z" transform="translate(-5050.783 -1258.454)" fill="#24272d" fill-rule="evenodd"/><path d="M5184.525,1325.974H5199.5v-13.511a22.714,22.714,0,0,0-10.759-19.266,9.325,9.325,0,0,1,9.291-8.931h1.468V1269.62h-3.448a21.893,21.893,0,0,0-21.759,20.171h-5.208v-29.46l-15.017-.037v55.385h15.017v-11.248h5.891a9.571,9.571,0,0,1,9.545,9.547Z" transform="translate(-5038.214 -1260.293)" fill="#24272d" fill-rule="evenodd"/><ellipse cx="7.31" cy="7.31" rx="7.31" ry="7.31" transform="translate(307.057 51.166)" fill="#24272d"/></g></g></svg>