<?xml version="1.0" standalone="no"?>
<!DOCTYPE svg PUBLIC "-//W3C//DTD SVG 20010904//EN"
 "http://www.w3.org/TR/2001/REC-SVG-20010904/DTD/svg10.dtd">
<svg version="1.0" xmlns="http://www.w3.org/2000/svg"
 width="576.000000pt" height="576.000000pt" viewBox="0 0 576.000000 576.000000"
 preserveAspectRatio="xMidYMid meet">
<metadata>
Created by potrace 1.14, written by Peter Selinger 2001-2017
</metadata>
<g transform="translate(0.000000,576.000000) scale(0.100000,-0.100000)"
fill="#000000" stroke="none">
<path d="M1890 5744 c-202 -42 -374 -157 -488 -324 -40 -59 -98 -180 -107
-227 -3 -15 -9 -41 -13 -58 -9 -39 -9 -239 0 -287 5 -29 3 -38 -7 -38 -18 0
-185 -84 -212 -107 -12 -10 -38 -31 -57 -46 -30 -23 -68 -66 -145 -163 -48
-60 -120 -275 -121 -359 -2 -156 17 -270 56 -347 15 -30 14 -31 -52 -43 -10
-2 -20 -4 -21 -5 -2 -2 -7 -3 -12 -4 -5 0 -13 -4 -17 -8 -4 -5 -15 -8 -25 -8
-20 0 -137 -58 -157 -77 -7 -7 -17 -13 -22 -13 -7 0 -22 -12 -108 -92 -52 -48
-128 -162 -160 -241 -42 -101 -60 -193 -60 -300 0 -270 146 -523 382 -661 64
-37 66 -40 51 -60 -28 -39 -84 -153 -104 -213 -21 -61 -25 -81 -41 -171 -10
-57 -6 -284 5 -302 4 -6 9 -26 12 -43 8 -55 64 -188 110 -264 55 -90 164 -208
249 -268 60 -43 211 -121 252 -130 9 -2 32 -8 50 -14 17 -5 32 -8 32 -5 0 3 8
0 18 -5 11 -6 38 -11 61 -12 45 -3 42 2 60 -94 43 -229 156 -413 351 -567 97
-78 282 -158 403 -175 66 -10 271 -10 317 -1 225 46 354 147 416 327 l23 66 0
2325 0 2325 -23 95 c-19 82 -67 204 -85 220 -3 3 -12 17 -19 31 -37 72 -182
205 -282 261 -38 21 -134 62 -150 63 -3 1 -14 4 -25 8 -74 24 -246 30 -335 11z
m240 -158 c99 -13 223 -75 309 -153 60 -53 151 -178 151 -205 0 -8 4 -18 9
-23 4 -6 17 -41 27 -80 18 -68 19 -149 19 -2390 l0 -2320 -22 -46 c-63 -138
-187 -199 -413 -203 -84 -1 -178 15 -260 45 -61 23 -148 67 -168 86 -7 7 -17
13 -20 13 -14 0 -130 117 -169 170 -82 112 -141 275 -144 398 -2 63 -19 106
-46 117 -10 4 -43 9 -73 10 -56 3 -111 11 -142 21 -9 3 -27 7 -39 9 -34 7
-163 70 -216 106 -27 18 -76 61 -110 96 -212 214 -276 534 -161 811 36 88 57
123 122 207 40 50 46 65 42 94 -5 43 -18 54 -91 81 -97 35 -165 79 -237 152
-163 166 -215 407 -133 623 87 233 305 390 553 399 42 1 59 7 81 29 36 34 34
65 -8 134 -29 47 -65 135 -78 188 -2 11 -6 58 -7 104 -6 201 82 382 248 505
67 50 113 70 266 115 14 4 32 21 41 37 15 26 15 34 3 79 -34 121 -38 261 -9
360 17 56 61 154 75 165 4 3 11 13 16 23 18 33 105 116 160 152 61 41 160 80
225 90 24 4 45 8 47 9 3 4 110 -2 152 -8z"/>
<path d="M1931 5424 c-167 -44 -296 -175 -334 -340 -23 -104 -13 -203 33 -301
77 -166 243 -266 430 -259 85 4 171 26 201 52 8 8 21 14 27 14 6 0 39 28 74
63 95 93 137 194 138 329 1 84 -5 110 -45 196 -55 116 -186 224 -300 248 -63
12 -172 12 -224 -2z"/>
<path d="M1452 4554 c-206 -54 -376 -231 -411 -428 -24 -133 -10 -238 50 -361
137 -282 480 -391 764 -242 117 62 229 201 267 330 33 116 27 257 -17 367 -18
46 -85 151 -114 180 -65 65 -190 139 -266 156 -61 13 -220 12 -273 -2z"/>
<path d="M2287 4510 c-113 -35 -173 -181 -119 -286 74 -143 276 -148 358 -9
74 127 -12 290 -158 301 -29 2 -66 -1 -81 -6z"/>
<path d="M2295 3852 c-3 -3 -11 -7 -18 -8 -68 -11 -158 -99 -172 -169 -12 -59
-12 -77 -2 -123 25 -119 133 -202 257 -197 97 4 174 55 219 143 60 118 -1 285
-125 337 -37 15 -149 27 -159 17z"/>
<path d="M918 3504 c-2 -1 -16 -5 -33 -7 -240 -43 -417 -253 -417 -496 0 -81
6 -115 34 -189 73 -198 274 -333 486 -326 211 7 402 150 468 350 26 81 26 244
0 319 -60 172 -209 304 -385 340 -33 7 -149 14 -153 9z"/>
<path d="M1940 3285 c-190 -47 -346 -204 -391 -392 -69 -286 110 -579 396
-650 48 -11 164 -14 215 -5 68 13 165 48 184 68 8 8 19 14 23 14 16 0 117 102
149 150 95 142 115 320 54 483 -61 164 -207 292 -380 334 -47 12 -201 11 -250
-2z"/>
<path d="M1216 2323 c-91 -15 -191 -55 -244 -97 -156 -122 -239 -273 -247
-449 -16 -395 341 -688 722 -592 175 44 306 151 383 310 47 98 64 178 57 281
-12 205 -112 371 -287 474 -67 40 -184 76 -254 79 -22 1 -42 3 -45 5 -3 2 -41
-3 -85 -11z"/>
<path d="M2191 2013 c-135 -34 -230 -145 -247 -285 -5 -43 -2 -72 15 -125 71
-237 367 -313 544 -140 95 92 125 219 83 347 -11 31 -65 112 -82 123 -7 4 -19
14 -27 21 -7 8 -31 23 -53 34 -74 37 -153 46 -233 25z"/>
<path d="M2009 1253 c-175 -45 -312 -180 -359 -353 -80 -298 161 -605 473
-602 34 1 71 3 82 6 11 3 36 9 56 14 61 16 141 64 201 123 148 148 184 365 90
559 -53 111 -209 234 -323 256 -65 12 -166 11 -220 -3z"/>
<path d="M3638 5755 c-2 -2 -22 -7 -44 -11 -64 -10 -229 -72 -244 -93 -3 -3
-18 -13 -35 -21 -16 -8 -69 -53 -116 -100 -90 -89 -149 -180 -188 -284 -52
-141 -50 -40 -50 -2519 1 -2492 -2 -2362 52 -2458 103 -182 265 -262 532 -263
72 -1 146 2 165 6 77 15 96 20 154 39 334 113 599 448 620 784 1 6 8 10 16 11
13 0 107 15 120 19 3 1 25 7 50 14 179 49 372 186 484 345 117 165 173 335
173 531 1 191 -53 379 -149 517 l-18 26 57 33 c167 94 299 254 356 434 26 80
29 104 33 225 2 91 -2 132 -17 190 -43 163 -137 312 -259 414 -45 37 -142 95
-178 107 -20 6 -41 15 -47 19 -5 4 -35 13 -65 21 -30 7 -59 16 -63 20 -5 3 4
42 19 85 37 109 43 291 14 409 -37 147 -99 255 -212 367 -78 78 -142 121 -253
169 -33 15 -59 31 -58 36 71 361 -107 709 -442 864 -37 17 -75 32 -86 34 -12
2 -30 7 -42 11 -45 15 -268 30 -279 19z m252 -181 c225 -65 387 -238 434 -464
16 -81 15 -216 -4 -264 -26 -69 -28 -104 -9 -135 11 -18 30 -33 46 -37 166
-36 294 -114 392 -239 38 -49 90 -165 104 -236 25 -119 8 -277 -39 -367 -8
-15 -14 -33 -14 -39 0 -7 -4 -13 -8 -13 -15 0 -52 -86 -47 -109 5 -28 41 -60
69 -63 12 0 32 -2 46 -3 109 -8 221 -45 304 -100 65 -43 146 -117 146 -133 0
-7 3 -12 8 -12 13 0 61 -84 86 -151 85 -226 33 -462 -139 -634 -67 -67 -182
-140 -238 -150 -59 -11 -96 -60 -82 -107 5 -12 29 -49 55 -80 158 -196 206
-472 125 -713 -99 -295 -367 -500 -680 -519 -99 -5 -114 -20 -121 -116 -9
-124 -43 -236 -104 -345 -158 -283 -509 -436 -827 -360 -13 3 -31 7 -40 9 -68
16 -141 68 -178 126 -54 86 -51 -47 -50 2435 1 2177 2 2304 19 2370 72 280
339 482 621 468 38 -2 95 -10 125 -19z"/>
<path d="M3688 5435 c-2 -2 -21 -5 -43 -7 -96 -11 -218 -87 -287 -179 -57 -76
-81 -149 -84 -256 -4 -102 12 -165 61 -248 57 -99 191 -197 285 -210 19 -3 54
-8 77 -11 61 -9 166 12 234 46 194 98 295 326 236 531 -46 156 -168 279 -317
319 -37 10 -155 21 -162 15z"/>
<path d="M4077 4563 c-2 -2 -13 -5 -23 -8 -174 -36 -340 -188 -399 -365 -87
-262 31 -551 276 -676 121 -61 300 -78 414 -39 232 79 386 277 399 515 4 89
-27 226 -64 280 -10 14 -19 30 -20 35 -4 25 -101 127 -155 163 -78 53 -109 67
-178 85 -52 14 -239 21 -250 10z"/>
<path d="M3329 4497 c-125 -66 -148 -227 -46 -326 139 -137 378 -1 336 191
-29 128 -174 196 -290 135z"/>
<path d="M3338 3844 c-58 -18 -122 -77 -149 -138 -74 -169 56 -359 241 -352
211 8 320 254 184 415 -64 76 -175 106 -276 75z"/>
<path d="M4778 3504 c-2 -1 -23 -4 -48 -7 -247 -26 -442 -248 -442 -502 0
-108 44 -239 102 -305 12 -14 30 -34 39 -45 41 -51 157 -122 226 -140 286 -73
567 92 634 372 63 262 -90 527 -349 603 -58 17 -155 31 -162 24z"/>
<path d="M3610 3293 c-35 -5 -107 -31 -156 -55 -123 -59 -248 -218 -269 -339
-3 -19 -8 -43 -12 -54 -10 -32 -6 -143 8 -198 26 -113 91 -219 178 -290 54
-44 168 -101 226 -113 48 -9 186 -13 200 -6 5 3 23 7 40 9 38 4 163 63 200 94
50 42 70 63 102 104 29 38 83 137 83 152 1 5 5 25 11 46 16 59 17 166 2 232
-14 63 -71 195 -85 195 -4 0 -8 5 -8 11 0 19 -107 116 -163 148 -30 17 -77 38
-104 47 -46 15 -201 25 -253 17z"/>
<path d="M4436 2333 c-1 -1 -24 -4 -52 -7 -97 -8 -225 -67 -311 -144 -204
-183 -250 -495 -109 -737 52 -89 167 -189 261 -230 86 -36 141 -48 235 -48
177 0 310 57 433 187 53 55 121 171 132 223 2 10 8 29 13 43 9 24 9 220 0 250
-3 8 -10 34 -16 56 -12 41 -63 144 -85 171 -77 94 -184 171 -285 205 -48 17
-207 39 -216 31z"/>
<path d="M3404 2015 c-241 -75 -316 -377 -136 -551 129 -126 325 -128 457 -5
68 63 99 136 99 236 1 97 -29 172 -95 236 -83 81 -219 116 -325 84z"/>
<path d="M3554 1254 c-178 -36 -330 -182 -373 -356 -47 -194 35 -407 199 -514
97 -63 149 -79 265 -79 117 0 191 20 269 73 48 33 136 119 136 134 0 4 7 13
15 21 8 8 26 50 40 92 61 181 17 367 -120 501 -58 57 -145 110 -199 120 -11 2
-34 7 -50 10 -54 12 -121 11 -182 -2z"/>
</g>
</svg>
