<svg xmlns="http://www.w3.org/2000/svg" width="41" height="41" viewBox="0 0 41 41">
  <g id="Сгруппировать_8918" data-name="Сгруппировать 8918" transform="translate(-207 -80)">
    <rect id="Прямоугольник_2779" data-name="Прямоугольник 2779" width="41" height="41" transform="translate(207 80)" fill="none"/>
    <g id="Сгруппировать_7677" data-name="Сгруппировать 7677" transform="translate(209 81)">
      <g id="Icons" transform="translate(0)">
        <path id="Контур_20432" data-name="Контур 20432" d="M18.055,41.128A6.012,6.012,0,0,1,12.267,35.4,5.833,5.833,0,0,1,7.5,31.775,6.715,6.715,0,0,1,8.046,25.5a5.306,5.306,0,0,1-2.789-5.445A5.038,5.038,0,0,1,9.277,15.6a5.463,5.463,0,0,1-.435-2.161A5.2,5.2,0,0,1,12.29,8.429a5.5,5.5,0,0,1,1.331-4.942A4.581,4.581,0,0,1,17.125,2a5.205,5.205,0,0,1,4.7,5.422V37.847a3.112,3.112,0,0,1-2.044,3,5.407,5.407,0,0,1-1.73.279ZM17,3.116a3.982,3.982,0,0,0-3.81,4.126,4.453,4.453,0,0,0,.238,1.407.6.6,0,0,1-.041.468.519.519,0,0,1-.356.269,4.041,4.041,0,0,0-3.157,4.054,4.169,4.169,0,0,0,.676,2.314.6.6,0,0,1,.04.581.513.513,0,0,1-.459.3,4.014,4.014,0,0,0-3.885,4.126A4.077,4.077,0,0,0,9.033,24.7a.539.539,0,0,1,.357.383.593.593,0,0,1-.113.53A5.475,5.475,0,0,0,8,29.122,4.99,4.99,0,0,0,12.76,34.3a.539.539,0,0,1,.516.559,5.328,5.328,0,0,0,1.957,4.149,4.488,4.488,0,0,0,4.244.77A2,2,0,0,0,20.8,37.847V7.42a4.116,4.116,0,0,0-3.7-4.3Z" transform="translate(-5.213 -1.995)" fill="#24272d"/>
      </g>
      <g id="Icons-2" data-name="Icons" transform="translate(20.383)">
        <path id="Контур_20432-2" data-name="Контур 20432" d="M8.988,41.128A6.012,6.012,0,0,0,14.777,35.4a5.833,5.833,0,0,0,4.765-3.621A6.715,6.715,0,0,0,19,25.5a5.306,5.306,0,0,0,2.789-5.445,5.038,5.038,0,0,0-4.02-4.452,5.463,5.463,0,0,0,.435-2.161,5.2,5.2,0,0,0-3.449-5.011,5.5,5.5,0,0,0-1.331-4.942A4.581,4.581,0,0,0,9.918,2a5.205,5.205,0,0,0-4.7,5.422V37.847a3.112,3.112,0,0,0,2.044,3,5.407,5.407,0,0,0,1.73.279ZM10.044,3.116a3.982,3.982,0,0,1,3.81,4.126,4.453,4.453,0,0,1-.238,1.407.6.6,0,0,0,.041.468.519.519,0,0,0,.356.269,4.041,4.041,0,0,1,3.157,4.054,4.169,4.169,0,0,1-.676,2.314.6.6,0,0,0-.04.581.513.513,0,0,0,.459.3A4.014,4.014,0,0,1,20.8,20.766,4.077,4.077,0,0,1,18.011,24.7a.539.539,0,0,0-.357.383.593.593,0,0,0,.113.53,5.475,5.475,0,0,1,1.279,3.5,4.99,4.99,0,0,1-4.762,5.18.539.539,0,0,0-.516.559,5.328,5.328,0,0,1-1.957,4.149,4.488,4.488,0,0,1-4.244.77,2,2,0,0,1-1.321-1.933V7.42a4.116,4.116,0,0,1,3.7-4.3Z" transform="translate(-5.213 -1.995)" fill="#24272d"/>
      </g>
      <ellipse id="Эллипс_1327" data-name="Эллипс 1327" cx="2.882" cy="2.882" rx="2.882" ry="2.882" transform="translate(9.816 2.016)" fill="#24272d"/>
      <ellipse id="Эллипс_1339" data-name="Эллипс 1339" cx="2.872" cy="2.872" rx="2.872" ry="2.872" transform="translate(21.429 2.03)" fill="#ef4864"/>
      <ellipse id="Эллипс_1328" data-name="Эллипс 1328" cx="3.503" cy="3.503" rx="3.503" ry="3.503" transform="translate(6.011 8.226)" fill="#d1e92a"/>
      <ellipse id="Эллипс_1337" data-name="Эллипс 1337" cx="3.511" cy="3.511" rx="3.511" ry="3.511" transform="translate(23.987 8.222)" fill="#00a7cf"/>
      <ellipse id="Эллипс_1329" data-name="Эллипс 1329" cx="3.182" cy="3.202" rx="3.182" ry="3.202" transform="translate(1.921 15.568)" fill="#ef4864"/>
      <ellipse id="Эллипс_1336" data-name="Эллипс 1336" cx="3.192" cy="3.192" rx="3.192" ry="3.192" transform="translate(28.702 15.582)" fill="#24272d"/>
      <ellipse id="Эллипс_1330" data-name="Эллипс 1330" cx="3.663" cy="3.663" rx="3.663" ry="3.663" transform="translate(3.523 23.744)" fill="#00a7cf"/>
      <ellipse id="Эллипс_1340" data-name="Эллипс 1340" cx="3.67" cy="3.67" rx="3.67" ry="3.67" transform="translate(26.149 23.733)" fill="#d1e92a"/>
      <ellipse id="Эллипс_1331" data-name="Эллипс 1331" cx="3.042" cy="3.042" rx="3.042" ry="3.042" transform="translate(10.179 31.188)" fill="#ef4864"/>
      <ellipse id="Эллипс_1344" data-name="Эллипс 1344" cx="3.032" cy="3.032" rx="3.032" ry="3.032" transform="translate(20.749 31.194)" fill="#24272d"/>
      <ellipse id="Эллипс_1332" data-name="Эллипс 1332" cx="3.363" cy="3.363" rx="3.363" ry="3.363" transform="translate(9.494 16.996)" fill="#24272d"/>
      <ellipse id="Эллипс_1338" data-name="Эллипс 1338" cx="3.351" cy="3.351" rx="3.351" ry="3.351" transform="translate(20.793 17.003)" fill="#ef4864"/>
      <ellipse id="Эллипс_1333" data-name="Эллипс 1333" cx="1.601" cy="1.581" rx="1.601" ry="1.581" transform="translate(13.237 13.028)" fill="#00a7cf"/>
      <ellipse id="Эллипс_1342" data-name="Эллипс 1342" cx="1.596" cy="1.596" rx="1.596" ry="1.596" transform="translate(20.573 13.007)" fill="#d1e92a"/>
      <ellipse id="Эллипс_1335" data-name="Эллипс 1335" cx="2.082" cy="2.062" rx="2.082" ry="2.062" transform="translate(12.222 25.623)" fill="#d1e92a"/>
      <ellipse id="Эллипс_1341" data-name="Эллипс 1341" cx="2.075" cy="2.075" rx="2.075" ry="2.075" transform="translate(20.628 25.603)" fill="#00a7cf"/>
      <circle id="Эллипс_1334" data-name="Эллипс 1334" cx="1.281" cy="1.281" r="1.281" transform="translate(13.564 8.474)" fill="#ef4864"/>
      <ellipse id="Эллипс_1343" data-name="Эллипс 1343" cx="1.277" cy="1.277" rx="1.277" ry="1.277" transform="translate(20.886 8.467)" fill="#24272d"/>
    </g>
  </g>
</svg>
